<svg xmlns="http://www.w3.org/2000/svg" aria-hidden="true" style="position:absolute;width:0;height:0;overflow:hidden"><defs><symbol id="icon-check_box_checked" viewBox="0 0 34 32"><path fill="#2196f3" d="M4.267 0h25.6a4.267 4.267 0 0 1 4.267 4.267v23.467a4.267 4.267 0 0 1-4.267 4.267h-25.6A4.267 4.267 0 0 1 0 27.734V4.267A4.267 4.267 0 0 1 4.267 0z" style="fill:var(--color1, #2196f3)"/><path fill="#fff" stroke="#fff" stroke-width=".427" d="m8.442 16.537-.147-.14-2.205 2.088 7.767 7.41 16.318-15.567-2.19-2.089-14.128 13.465-5.416-5.167z" style="fill:var(--color2, #fff);stroke:var(--color2, #fff)"/></symbol><symbol id="icon-check_box_unchecked" viewBox="0 0 34 32"><path d="M30.341 3.556v24.889H3.793V3.556h26.548zm0-3.556H3.793C1.707 0 0 1.6 0 3.556v24.889c0 1.956 1.707 3.556 3.793 3.556h26.548c2.086 0 3.793-1.6 3.793-3.556V3.556C34.134 1.6 32.427 0 30.341 0z"/></symbol></defs></svg>





<svg xmlns="http://www.w3.org/2000/svg" aria-hidden="true" style="position:absolute;width:0;height:0;overflow:hidden"><defs><symbol id="icon-check_box_checked" viewBox="0 0 34 32"><path fill="#2196f3" d="M4.267 0h25.6a4.267 4.267 0 0 1 4.267 4.267v23.467a4.267 4.267 0 0 1-4.267 4.267h-25.6A4.267 4.267 0 0 1 0 27.734V4.267A4.267 4.267 0 0 1 4.267 0z" style="fill:var(--color1, #2196f3)"/><path fill="#fff" stroke="#fff" stroke-width=".427" d="m8.442 16.537-.147-.14-2.205 2.088 7.767 7.41 16.318-15.567-2.19-2.089-14.128 13.465-5.416-5.167z" style="fill:var(--color2, #fff);stroke:var(--color2, #fff)"/></symbol></defs></svg>


<svg xmlns="http://www.w3.org/2000/svg" aria-hidden="true" style="position:absolute;width:0;height:0;overflow:hidden"><defs><symbol id="icon-check_box_unchecked" viewBox="0 0 34 32"><path d="M30.341 3.556v24.889H3.793V3.556h26.548zm0-3.556H3.793C1.707 0 0 1.6 0 3.556v24.889c0 1.956 1.707 3.556 3.793 3.556h26.548c2.086 0 3.793-1.6 3.793-3.556V3.556C34.134 1.6 32.427 0 30.341 0z"/></symbol></defs></svg>